<svg viewBox="0 0 230 22" xmlns="http://www.w3.org/2000/svg" width="128" height="22">
<path d="M2.8-29.42L2.8 0 14.08 0C22.89 0 28.53-3.35 28.53-14.71 28.53-26.96 22.89-29.42 14.08-29.42ZM11.24-7.21L11.24-22.39 13.57-22.39C18.32-22.39 19.76-20.86 19.76-14.71 19.76-8.82 18.48-7.21 13.57-7.21ZM47.44-23.32C44.73-23.32 42.65-22.55 41.29-18.91L41.29-22.89 33.24-22.89 33.24 0 41.29 0 41.29-11.96C41.63-15.14 44.43-16.15 47.1-16.15L47.74-16.15 47.91-23.32ZM72.2-12.93C72.2-19.93 70-23.32 61.86-23.32 54.27-23.32 49.86-20.86 49.86-11.45 49.86-2.04 54.27 0.42 61.47 0.42 66.01 0.42 69.66-0.42 71.06-1.4L71.06-7.33C69.7-6.53 66.18-5.68 63.09-5.68 60.16-5.68 58.34-6.49 57.87-8.48L71.95-9.33C72.07-9.67 72.2-11.07 72.2-12.93ZM57.83-13.95C58-16.79 59.19-17.42 61.9-17.42 64.44-17.42 65.08-16.24 65.08-14.5ZM85.98-23.28C84.33-23.28 81.87-23.19 80.13-22.89L80.13-16.15C81.61-16.41 83.18-16.53 84.84-16.53 88.18-16.53 89.03-16.2 89.16-13.86L84.45-13.86C77.8-13.86 74.79-11.91 74.79-6.66 74.79-1.74 77.8 0.42 82.59 0.42 86.62 0.42 88.57-0.98 89.24-2.12L89.88 0 97.17 0 97.17-15.56C97.17-20.9 93.99-23.28 85.98-23.28ZM85.13-5.55C83.48-5.55 82.59-5.85 82.59-7.04 82.59-8.39 83.39-8.78 85.94-8.78L89.16-8.78 89.16-7C88.52-6.19 87.12-5.55 85.13-5.55ZM130.41-23.32C126.64-23.32 124.39-22.34 123.25-20.52 122.1-22.51 120.11-23.32 116.84-23.32 113.16-23.32 111.5-22.17 110.48-20.56L110.48-22.89 102.43-22.89 102.43 0 110.48 0 110.48-14.88C110.7-16.11 111.25-16.96 113.33-16.96 115.15-16.96 116.17-16.49 116.17-13.65L116.17 0 124.22 0 124.22-14.33C124.52-15.98 125.15-16.96 127.36-16.96 129.27-16.96 130.16-16.49 130.16-13.65L130.16 0 138.21 0 138.21-14.71C138.21-21.33 135.41-23.32 130.41-23.32ZM162.21 0.42C171.32 0.42 174.16-3.01 174.16-8.86 174.16-14.2 173.27-16.53 165.94-18.44 162.29-19.38 161.66-19.67 161.66-21.03 161.66-22.43 162.72-23.06 165.43-23.06 167.76-23.06 171.45-22.51 172.68-22.05L172.68-28.79C171.03-29.34 168.74-29.85 165.05-29.85 158.01-29.85 153.52-27.64 153.52-20.69 153.52-15.47 155.04-13.44 161.49-11.96 165.18-11.07 165.73-10.34 165.73-9.12 165.73-7.29 165.26-6.7 161.74-6.7 159.11-6.7 155.68-7.25 153.73-7.8L153.73-0.55C155.81-0.04 158.94 0.42 162.21 0.42ZM182.73-25.27C186.46-25.27 187.09-25.65 187.09-29.38 187.09-33.07 186.46-33.37 182.73-33.37 179.04-33.37 178.36-33.07 178.36-29.38 178.36-25.65 179.04-25.27 182.73-25.27ZM178.7 0L186.76 0 186.76-22.89 178.7-22.89ZM204.39-16.7L204.39-22.89 200.32-22.89 200.32-28.32 192.27-28.32 192.27-22.89 189.55-22.89 189.55-16.7 192.27-16.7 192.27-7.55C192.27-1.57 194.39 0.25 200.49 0.25 201.51 0.25 202.87 0.17 203.76 0.04L203.76-5.98C203.38-5.85 202.91-5.89 202.44-5.89 200.79-5.89 200.32-6.32 200.32-8.31L200.32-16.7ZM228.69-12.93C228.69-19.93 226.48-23.32 218.34-23.32 210.75-23.32 206.34-20.86 206.34-11.45 206.34-2.04 210.75 0.42 217.96 0.42 222.5 0.42 226.14-0.42 227.54-1.4L227.54-7.33C226.18-6.53 222.67-5.68 219.57-5.68 216.65-5.68 214.82-6.49 214.36-8.48L228.43-9.33C228.56-9.67 228.69-11.07 228.69-12.93ZM214.31-13.95C214.48-16.79 215.67-17.42 218.38-17.42 220.93-17.42 221.56-16.24 221.56-14.5Z" transform="translate(0, 27)"></path></svg>