<svg xmlns="http://www.w3.org/2000/svg" width="120" height="120"><g><rect x="0" y="0" width="120" height="120" rx="15" fill="#1C2329" fill-opacity="1"></rect></g><g transform="matrix(1,0,0,-1,0,190)"><path d="M46,108L46,95L61.5,95Q65.0213,95,68.4461,95.700818Q71.78880000000001,96.38485,74.931,97.71385Q78.0139,99.01781,80.7938,100.89591Q83.54480000000001,102.75446,85.8952,105.1048Q88.24549999999999,107.4552,90.1041,110.2062Q91.9822,112.9862,93.28620000000001,116.069Q94.6152,119.2112,95.2992,122.5539Q96,125.9788,96,129.5Q96,133.0213,95.2992,136.4461Q94.6152,139.7888,93.28620000000001,142.93099999999998Q91.9822,146.0138,90.1041,148.7938Q88.24549999999999,151.5448,85.8952,153.8952Q83.54480000000001,156.2456,80.7938,158.10410000000002Q78.0139,159.9822,74.931,161.2862Q71.78880000000001,162.61520000000002,68.4461,163.29919999999998Q65.0213,164,61.5,164L33,164L33,108L46,108ZM46,108L46,151L61.5,151Q63.7048,151,65.8399,150.5631Q67.9157,150.13830000000002,69.8668,149.3131Q71.7846,148.5019,73.5163,147.332Q75.2341,146.1715,76.7028,144.7028Q78.17150000000001,143.2341,79.332,141.5163Q80.5019,139.7846,81.31309999999999,137.8668Q82.1383,135.91570000000002,82.56309999999999,133.8399Q83,131.7048,83,129.5Q83,127.2952,82.56309999999999,125.1601Q82.1383,123.0843,81.31309999999999,121.1332Q80.5019,119.2154,79.332,117.4837Q78.17150000000001,115.7659,76.7028,114.2972Q75.2341,112.82849999999999,73.5163,111.668Q71.7846,110.4981,69.8668,109.6869Q67.9157,108.8617,65.8399,108.4369Q63.7048,108,61.5,108L46,108Z" fill-rule="evenodd" fill="#FFFFFF" fill-opacity="1"></path></g></svg>